<?xml version="1.1" encoding="utf-8"?>
<!-- Generator: Adobe Illustrator 16.0.0, SVG Export Plug-In . SVG Version: 6.00 Build 0)  -->
<!DOCTYPE svg PUBLIC "-//W3C//DTD SVG 1.1//EN" "http://www.w3.org/Graphics/SVG/1.1/DTD/svg11.dtd">
<svg version="1.1" id="Layer_1" xmlns="http://www.w3.org/2000/svg" xmlns:xlink="http://www.w3.org/1999/xlink" x="0px" y="0px"
	 width="62px" height="18.503px" viewBox="0 0 62 18.503" enable-background="new 0 0 62 18.503" xml:space="preserve">
<g>
	<path d="M6.644,4.317c1.859,0,3.37,0.996,3.934,2.71H8.646C8.25,6.224,7.531,5.828,6.631,5.828c-1.463,0-2.506,1.067-2.506,2.771
		c0,1.691,1.043,2.771,2.506,2.771c0.899,0,1.619-0.396,2.015-1.211h1.931c-0.563,1.727-2.075,2.71-3.934,2.71
		c-2.411,0-4.246-1.763-4.246-4.27C2.398,6.092,4.233,4.317,6.644,4.317z"/>
	<path d="M16.507,12.88c-2.363,0-4.293-1.775-4.293-4.293c0-2.507,1.931-4.282,4.293-4.282c2.387,0,4.282,1.775,4.282,4.282
		C20.789,11.105,18.882,12.88,16.507,12.88z M16.507,11.381c1.511,0,2.555-1.092,2.555-2.794c0-1.703-1.043-2.771-2.555-2.771
		c-1.523,0-2.566,1.067-2.566,2.771C13.941,10.29,14.984,11.381,16.507,11.381z"/>
	<path d="M24.321,4.425v7.041h2.758v1.331h-4.438V4.425H24.321z"/>
	<path d="M30.429,4.425v7.041h2.758v1.331H28.75V4.425H30.429z"/>
	<path d="M39.991,11.201h-3.334l-0.552,1.595h-1.763l3.01-8.383h1.955l3.011,8.383h-1.775L39.991,11.201z M38.323,6.356
		l-1.211,3.502h2.422L38.323,6.356z"/>
	<path d="M51.809,6.944h-1.931c-0.384-0.708-1.079-1.08-1.967-1.08c-1.499,0-2.542,1.067-2.542,2.734
		c0,1.703,1.055,2.758,2.614,2.758c1.295,0,2.123-0.743,2.375-1.931h-2.878V8.143h4.533v1.463c-0.335,1.703-1.859,3.262-4.09,3.262
		c-2.435,0-4.281-1.763-4.281-4.27c0-2.506,1.847-4.282,4.27-4.282C49.782,4.317,51.269,5.265,51.809,6.944z"/>
	<path d="M58.723,5.78h-3.178v2.099h2.818V9.21h-2.818v2.219h3.178v1.367h-4.857V4.413h4.857V5.78z"/>
</g>
</svg>
